# xmcd
#
# Track frame offsets: 
#        150
#        13883
#        25802
#        39896
#        54105
#        66864
#        78971
#        96928
#        110860
#        131461
#        146024
#        159146
#        172736
#        190244
#        204302
#        217219
#        234005
#        246449
#        265041
#        280732
#
# Disc length: 4015 seconds
#
# Revision: 1
# Processed by: cddbd v1.5.2PL0 Copyright (c) Steve Scherf et al.
# Submitted via: ExactAudioCopyFreeDBPlugin 1.0
#
DISCID=0b0fad14
DTITLE=Various Artist - Philadelphia International Records:  The 40th
DTITLE=Anniversary Box Set
DYEAR=2012
DGENRE=Soul
TTITLE0=The Ebonys - You're the Reason Why
TTITLE1=Bobby Bennett - Days Go By
TTITLE2=Dick Jensen - New York City's a Lonely Town
TTITLE3=The Trammps - Stop and Think
TTITLE4=Love Committee - One Day of Peace
TTITLE5=Robert Upchurch - The Devil Made Me Do It
TTITLE6=The Ethics - Who in the World
TTITLE7=The Ebonys - Do You Like the Way I Love
TTITLE8=Anthony White - Never Let You Get Away from Me
TTITLE9=Kaleidoscope - I'm a Changed Person
TTITLE10=Carolyn Crawford - If You Move, You Lose
TTITLE11=The Ebonys - I'm So Glad I'm Me
TTITLE12=Bunny Sigler - Can't Believe That You Love Me
TTITLE13=Derek and Cyndi - You Bring Out the Best in Me
TTITLE14=Anthony White - Hey Baby
TTITLE15=The Trammps - Where Do We Go from Here
TTITLE16=Carolyn Crawford - Good and Plenty
TTITLE17=Yellow Sunshine - Yellow Sunshine
TTITLE18=The Intruders - To Be Happy is the Real Thing
TTITLE19=The Ebonys - It's Forever Original
EXTD=
EXTT0=
EXTT1=
EXTT2=
EXTT3=
EXTT4=
EXTT5=
EXTT6=
EXTT7=
EXTT8=
EXTT9=
EXTT10=
EXTT11=
EXTT12=
EXTT13=
EXTT14=
EXTT15=
EXTT16=
EXTT17=
EXTT18=
EXTT19=
PLAYORDER=
